<?xml version="1.0" encoding="utf-8"?>
<!-- Generator: Adobe Illustrator 15.0.2, SVG Export Plug-In . SVG Version: 6.00 Build 0)  -->
<!DOCTYPE svg PUBLIC "-//W3C//DTD SVG 1.1//EN" "http://www.w3.org/Graphics/SVG/1.1/DTD/svg11.dtd">
<svg version="1.1" id="Layer_1" xmlns="http://www.w3.org/2000/svg" xmlns:xlink="http://www.w3.org/1999/xlink" x="0px" y="0px"
	 width="78px" height="42.2px" viewBox="20 11.4 78 42.2" enable-background="new 20 11.4 78 42.2" xml:space="preserve">
<rect fill="none" width="118" height="65"/>
<path d="M91.8,41.4h5.8V42C97.4,42,97.2,42,97,42h-4v5h3.9c0.3,0,0.5,0,0.699-0.1v0.6c-0.199,0-0.399,0-0.699,0H93v5.3h3.9
	c0.1,0,0.3,0,0.699-0.1v0.7H91.9c0-0.2,0-0.4,0-0.601V42C91.8,41.8,91.8,41.6,91.8,41.4 M83.6,47.2h1.2c0.601,0,1.2-0.101,1.7-0.4
	c0.8-0.5,1.3-1.2,1.3-2.2c0-0.399-0.1-0.899-0.3-1.199c-0.2-0.4-0.5-0.7-0.8-0.9C86.2,42.2,85.5,42,84.6,42h-1.1L83.6,47.2
	L83.6,47.2z M83.6,47.7v5.1c0,0.2,0,0.4,0.101,0.601h-1.3c0-0.2,0.1-0.4,0.1-0.601V42c0-0.2,0-0.4-0.1-0.6H85.1
	c0.801,0,1.5,0.1,2.101,0.399c0.5,0.2,1,0.601,1.3,1c0.4,0.5,0.5,1.101,0.5,1.7c0,0.9-0.3,1.7-1,2.2s-1.6,0.8-2.9,0.899L89.9,52.9
	c0.1,0.199,0.3,0.3,0.5,0.399H88.6c-0.1-0.1-0.199-0.3-0.3-0.5L83.6,47.7z M73.6,48.8h4.7L75.9,42.6L73.6,48.8z M73.4,49.3L72,52.9
	c0,0.1-0.1,0.199-0.1,0.5h-0.7c0.1-0.2,0.2-0.301,0.2-0.5L75.5,41.8c0-0.1,0.1-0.2,0.1-0.399H76.7c0,0.1,0,0.199,0.1,0.3l4.3,11.2
	c0,0.1,0.101,0.3,0.301,0.5H80c0-0.2,0-0.301-0.1-0.5L78.5,49.3H73.4L73.4,49.3z M64.7,42.7l-2.9,10.2c0,0.1-0.1,0.199-0.1,0.5H60.6
	c0-0.2,0-0.4-0.1-0.601L57.6,42c0-0.2-0.1-0.3-0.2-0.5h1.2l0,0c0,0,0,0.2,0.1,0.4L61.5,52l2.9-10.1c0-0.2,0.1-0.301,0.1-0.4v-0.1
	h1.2v0.1c0,0.1,0,0.2,0.1,0.4l3,10.1l2.7-10.1c0-0.2,0.1-0.301,0.1-0.4H72.2c0,0.1-0.101,0.2-0.2,0.4l-3,11c0,0.1-0.1,0.199-0.1,0.5
	H67.8c0-0.2,0-0.4-0.1-0.601L64.7,42.7z M48,41.4h8.6V42.1C56.2,42,55.9,42,55.7,42h-2.9v10.7c0,0.2,0,0.399,0.1,0.6h-1.3
	c0-0.2,0.1-0.399,0.1-0.6V42h-3c-0.2,0-0.5,0-0.8,0.1L48,41.4L48,41.4z M41.1,41.4h5.7V42c-0.2,0-0.4-0.1-0.7-0.1h-3.8V47h3.3
	c0.2,0,0.4,0,0.6-0.1v0.6c-0.2,0-0.4-0.1-0.6-0.1h-3.3v5.3c0,0.2,0,0.399,0.1,0.6h-1.3c0-0.2,0.1-0.399,0.1-0.6V42
	C41.2,41.8,41.1,41.6,41.1,41.4z M33.9,41.9c-1.6,0-2.7,0.5-3.5,1.6c-0.7,1-1,2.2-1,3.8c0,1.7,0.3,3,1,4
	c0.8,1.101,2,1.601,3.6,1.601c1.5,0,2.7-0.5,3.5-1.5c0.7-1,1.1-2.301,1.1-4c0-1.7-0.4-3-1.1-4c-0.4-0.5-0.9-0.9-1.5-1.2
	C35.4,42,34.7,41.9,33.9,41.9z M34,41.3c1.8,0,3.3,0.5,4.3,1.601c1.1,1.1,1.6,2.6,1.6,4.5c0,2-0.5,3.5-1.6,4.6c-1,1-2.4,1.6-4.3,1.6
	s-3.4-0.5-4.4-1.6s-1.5-2.6-1.5-4.6c0-1.9,0.5-3.301,1.6-4.4C30.7,41.8,32.1,41.3,34,41.3z M20,52.6l0.3-1
	c0.3,0.2,0.5,0.4,0.8,0.601c0.6,0.399,1.3,0.6,2.1,0.6c0.9,0,1.6-0.3,2.1-0.8c0.4-0.4,0.6-1,0.6-1.6c0-0.801-0.3-1.4-0.9-1.9
	c-0.3-0.2-1-0.5-2-1s-1.7-0.9-2.1-1.4c-0.5-0.5-0.8-1.199-0.8-1.899c0-0.601,0.2-1.101,0.5-1.601c0.7-0.899,1.7-1.399,3.2-1.399
	c0.9,0,1.7,0.2,2.6,0.6l-0.3,0.8c-0.9-0.5-1.7-0.8-2.5-0.8c-0.8,0-1.4,0.2-1.9,0.7c-0.4,0.4-0.6,0.9-0.6,1.4s0.2,1,0.5,1.399
	c0.4,0.4,1.1,0.8,2.1,1.3c0.7,0.301,1.2,0.601,1.5,0.801C25.5,47.6,25.8,47.8,26,48c0.6,0.6,0.9,1.3,0.9,2.1
	c0,0.601-0.2,1.2-0.5,1.7C25.7,52.9,24.6,53.4,23,53.4C22,53.5,21,53.2,20,52.6z"/>
<path d="M63.7,36.6l0.7-2.199c0.6,0.5,1.199,1,1.6,1.3c1.3,0.899,2.9,1.399,4.5,1.399c1.9,0,3.4-0.6,4.5-1.8c0.9-1,1.4-2.2,1.4-3.6
	c0-1.7-0.7-3.1-2-4.2C73.8,27,72.5,26.3,70.3,25.2c-2.2-1.1-3.7-2.1-4.6-3C64.5,21,64,19.7,64,18c0-1.3,0.4-2.5,1.2-3.6
	c1.5-2,3.8-3,6.899-3c1.801,0,3.7,0.4,5.601,1.3L77,14.5c-1.9-1.2-3.7-1.8-5.3-1.8c-1.7,0-3,0.5-4,1.6c-0.8,0.9-1.2,1.9-1.2,3.1
	c0,1.2,0.4,2.2,1.2,3c0.8,0.8,2.3,1.8,4.5,2.9c1.5,0.7,2.6,1.3,3.3,1.8c0.7,0.4,1.2,0.9,1.7,1.4c1.3,1.4,1.899,2.9,1.899,4.7
	c0,1.3-0.399,2.6-1.1,3.8c-1.5,2.4-4,3.6-7.3,3.6C68.1,38.5,65.9,37.9,63.7,36.6 M23.2,24.9h3.1c1.5,0,2.8-0.2,3.7-0.6
	c1-0.4,1.8-1.1,2.4-2c0.6-1,0.9-2.1,0.9-3.4c0-1.8-0.6-3.2-1.8-4.3c-1.2-1-2.8-1.6-4.8-1.6h-3.6L23.2,24.9L23.2,24.9z M51.7,23.8h8
	C59.6,24.2,59.6,24.7,59.6,25v10.2c0,0.5,0.101,1,0.301,1.399c-2.101,0.7-3.7,1.2-4.9,1.5c-1.2,0.2-2.5,0.4-3.9,0.4
	c-3.8,0-6.7-1.2-8.9-3.5c-2.3-2.6-3.5-5.9-3.5-10.1c0-4.5,1.4-8,4.2-10.5c2.2-2,5.2-2.9,8.9-2.9c1.2,0,2.3,0.1,3.4,0.3
	c1,0.2,2.3,0.6,3.7,1.2v2.3c-2.6-1.5-5.1-2.3-7.5-2.3c-2.8,0-5.1,0.9-6.9,2.8c-1.1,1.1-1.8,2.3-2.2,3.7c-0.5,1.7-0.8,3.5-0.8,5.6
	c0,1.4,0.2,2.8,0.5,4.2c0.3,1.4,0.7,2.5,1.2,3.3c1,1.8,2.5,3.1,4.5,3.8c1.3,0.5,2.6,0.699,4.1,0.699c1.9,0,3.7-0.5,5.5-1.399v-11
	h-5.4L51.7,23.8L51.7,23.8z M23.2,26.1V37c0,0.4,0,0.8,0.1,1.2h-2.8c0.1-0.4,0.1-0.8,0.1-1.2V13.1c0-0.4,0-0.8-0.1-1.3h7
	c1.8,0,3.4,0.4,4.9,1.1c2.3,1.2,3.5,3.1,3.5,5.7c0,2.1-0.7,3.8-2.2,5.1C32,25.2,29.6,26,26.5,26L23.2,26.1L23.2,26.1z"/>
<rect x="82.2" y="12" fill="#F4762B" width="15.8" height="25.9"/>
</svg>
